PathFileType	4	(X/Y/Z)	/Users/visionmauri/1_1_1_f_Sports2D/1_1_1_f_Sports2D_px_person00.trc
DataRate	CameraRate	NumFrames	NumMarkers	Units	OrigDataRate	OrigDataStartFrame	OrigNumFrames
30.0	30.0	6	22	m	30.0	268	358
Frame#	Time	Hip			RHip			RKnee			RAnkle			RBigToe			RSmallToe			RHeel			LHip			LKnee			LAnkle			LBigToe			LSmallToe			LHeel			Neck			Head			Nose			RShoulder			RElbow			RWrist			LShoulder			LElbow			LWrist			
		X1	Y1	Z1	X2	Y2	Z2	X3	Y3	Z3	X4	Y4	Z4	X5	Y5	Z5	X6	Y6	Z6	X7	Y7	Z7	X8	Y8	Z8	X9	Y9	Z9	X10	Y10	Z10	X11	Y11	Z11	X12	Y12	Z12	X13	Y13	Z13	X14	Y14	Z14	X15	Y15	Z15	X16	Y16	Z16	X17	Y17	Z17	X18	Y18	Z18	X19	Y19	Z19	X20	Y20	Z20	X21	Y21	Z21	X22	Y22	Z22
268	8.958356676003735	496.0568329298074	951.4702277702727	0.0	442.2042819652381	961.4629165088087	0.0	450.13156920984454	1163.2526185114502	0.0	467.90037172036034	1351.7201312911259	0.0	467.6013602629822	1431.1996384355368	0.0	435.275531690022	1420.4290484756575	0.0	485.2424041358923	1381.1175993965853	0.0	550.9744154519225	956.4203342161895	0.0	555.7697485366775	1149.6693719162913	0.0	548.1004297444574	1388.927985688598	0.0	524.5270965442614	1462.8064476828868	0.0	554.4519066979138	1462.6282201998245	0.0	541.3243189275961	1424.5880701478527	0.0	490.39856077231025	647.2150829339505	0.0	490.9599814669461	511.80230446187363	0.0	491.09227547009016	609.6852939237575	0.0	388.1869810942415	690.2210096030361	0.0	357.88717030317713	821.1073333877731	0.0	334.5510597629869	928.8729698349697	0.0	593.2091995724942	677.044111834233	0.0	627.3408104939087	808.4147078098318	0.0	633.5968117423209	835.0080964111597	0.0
269	8.991783380018674	497.99649551400654	952.4697845195387	0.0	444.73129882337065	963.834421379432	0.0	451.4131873957032	1164.6488350555878	0.0	468.54532509617235	1351.5087622956637	0.0	469.2785463711154	1431.3540714438843	0.0	435.28742874680864	1420.99195732149	0.0	486.9985203803504	1380.8547278929884	0.0	552.3688863344581	960.2205085215646	0.0	555.9370101871082	1152.0357719161677	0.0	548.0793324075344	1393.0652781546275	0.0	525.8308998966369	1472.1513158346447	0.0	556.1100704013292	1469.3371321122856	0.0	541.859259309661	1426.8065061128798	0.0	492.9350921969778	647.0330800823377	0.0	495.024104339628	512.073564928226	0.0	495.6386077554749	609.1066217948041	0.0	391.2429448269324	688.469087180706	0.0	360.13058735068984	819.9373841065317	0.0	334.3023153683135	928.3815866091107	0.0	595.994473388475	677.2477968512164	0.0	630.110052410732	806.5200455021281	0.0	635.3272910870411	830.1514502688656	0.0
270	9.025210084033613	499.43949445183085	952.4956939177137	0.0	446.6079438695296	966.2771686112604	0.0	452.4516319365688	1165.9989716664313	0.0	468.9263055133791	1350.9607199487618	0.0	469.5238806470508	1431.475615771875	0.0	435.2033903130338	1421.4562200771365	0.0	486.7144673644175	1379.3269461124219	0.0	554.1464563443662	963.4790334602362	0.0	556.2472437240858	1153.8313193120225	0.0	548.6466114768106	1395.338999156273	0.0	527.6142449200316	1474.8019512257003	0.0	557.683247571353	1471.2391128298332	0.0	542.1964677242335	1427.8130392450487	0.0	495.37015332262945	647.3292985828855	0.0	499.9625785290686	511.3222639044958	0.0	500.49745669776803	609.3909223526733	0.0	393.80287396432925	686.0995599941364	0.0	361.6217172900139	819.2592611409914	0.0	334.4959043607271	928.735755160522	0.0	599.0962378004297	676.5236636878615	0.0	632.2721957112489	802.5884384205215	0.0	638.8235647354333	825.998680237521	0.0
271	9.058636788048553	500.6963952379109	952.0031217261039	0.0	447.2330964386224	967.1603477175287	0.0	452.3280713503237	1168.147169504498	0.0	468.31520101423035	1350.0990236608043	0.0	469.3769972049158	1431.440608696135	0.0	435.3379504472114	1421.9292592351048	0.0	484.37000683101013	1376.606456953583	0.0	556.1917704747657	964.3573502520442	0.0	557.6930986918522	1156.376830715837	0.0	549.793570902018	1397.5226068415589	0.0	528.7297608200828	1475.262467362947	0.0	558.1194285745694	1471.9133688558532	0.0	542.2174709763876	1429.6068572621843	0.0	498.59743133272497	647.2494982054724	0.0	505.4007377572323	508.95186369040096	0.0	506.26986544786763	610.114861685841	0.0	396.2058662566063	683.8240622264279	0.0	362.09205299014076	818.735400361053	0.0	335.53267217902754	929.7632658942854	0.0	602.8972811398713	675.4870124635535	0.0	634.0151631611523	801.020092461861	0.0	642.971187647403	824.6671620275271	0.0
272	9.092063492063492	501.87312082940633	951.3506162317695	0.0	447.0136330822217	966.9733056553475	0.0	450.99395411598385	1172.2586743451923	0.0	466.74535387215457	1349.4049434688613	0.0	469.56680617421864	1431.2920110027355	0.0	436.26866461290496	1422.4540461959298	0.0	481.45691339703944	1373.9945862244365	0.0	557.8622446281447	963.470349977994	0.0	560.171353336848	1158.5425994799323	0.0	550.4905924399533	1399.0689413057435	0.0	529.2148754488476	1475.0758080051899	0.0	558.6731585324575	1472.0578232401324	0.0	542.0007075088209	1430.5664038030043	0.0	503.03368814052806	645.5313496672577	0.0	510.9572959513662	506.4502473363436	0.0	512.2390372687192	609.3958139853797	0.0	399.0726651735734	681.4009103078865	0.0	362.4370835049234	817.7822343863598	0.0	337.22894851242205	929.8365590809615	0.0	607.1967883590147	675.3937374010984	0.0	636.5586903245766	803.9519782173032	0.0	645.9879555543263	825.1805767116684	0.0
273	9.125490196078431	503.0282005353414	951.2542948984387	0.0	446.8304823166957	966.7318277283164	0.0	448.97073383897936	1178.1266926127962	0.0	465.2416860879124	1348.6195077378115	0.0	469.809588033874	1431.766449840075	0.0	437.7830372199341	1423.3270650133413	0.0	478.9834488505551	1371.7183896085894	0.0	559.1086494629342	962.3443925462769	0.0	562.8607291028961	1159.481320026497	0.0	550.9999884876081	1400.2918616918353	0.0	529.3785583951984	1475.2094674861235	0.0	559.9566604636185	1472.3440586850234	0.0	541.7649929311015	1429.5791951523308	0.0	507.75165300794646	642.7108424781042	0.0	516.770194297899	504.8781382104223	0.0	517.5989211313416	606.574133138497	0.0	402.12905133772375	678.7032222743239	0.0	363.75172854288013	816.3533492641084	0.0	338.1744612306038	928.9257590084458	0.0	610.9693612900189	676.0465177268254	0.0	640.5092012324296	807.1118241406309	0.0	648.3480467246922	825.5529047887587	0.0
